<svg width="56" height="29" viewBox="0 0 56 29" fill="none" xmlns="http://www.w3.org/2000/svg">
<path fill-rule="evenodd" clip-rule="evenodd" d="M31.9139 27.5171C31.9139 28.0599 32.354 28.5 32.8968 28.5H42.0334C44.9327 28.5 47.423 27.9395 49.5045 26.8184C51.5953 25.6973 53.1983 24.0885 54.3134 21.9922C55.4378 19.8958 56 17.3893 56 14.4727C56 11.5651 55.4378 9.06771 54.3134 6.98047C53.1983 4.89323 51.6046 3.29362 49.5324 2.18164C47.4602 1.06055 44.9884 0.5 42.117 0.5H32.8968C32.354 0.5 31.9139 0.940055 31.9139 1.48289V4.61676C31.9139 5.1596 32.354 5.59965 32.8968 5.59965L37.9357 5.59965C37.9433 5.59965 37.9494 5.59352 37.9494 5.58596V5.58596C37.9494 5.5784 37.9555 5.57227 37.9631 5.57227H41.7825C43.5667 5.57227 45.0813 5.88216 46.2986 6.50195C47.516 7.12175 48.4313 8.08789 49.0446 9.40039C49.6672 10.7129 49.9785 12.4036 49.9785 14.4727C49.9785 16.5599 49.6672 18.2643 49.0446 19.5859C48.4313 20.8984 47.5113 21.8691 46.2847 22.498C45.0674 23.1178 43.5667 23.4277 41.7825 23.4277H37.9631C37.9555 23.4277 37.9494 23.4216 37.9494 23.414V23.414C37.9494 23.4065 37.9433 23.4003 37.9357 23.4003H32.8968C32.354 23.4003 31.9139 23.8404 31.9139 24.3832V27.5171Z" fill="#9A80F8"/>
<rect x="8.43005" y="0.5" width="20.172" height="5.01053" rx="0.982892" fill="#29273B"/>
<rect y="28.5" width="28" height="5.11828" rx="0.982892" transform="rotate(-90 0 28.5)" fill="#29273B"/>
<rect x="8.43005" y="23.4895" width="20.172" height="5.01053" rx="0.982892" fill="#29273B"/>
<rect x="8.43005" y="11.9948" width="34.6237" height="5.01053" rx="0.982892" fill="#9A80F8"/>
</svg>
